<svg xmlns:xlink="http://www.w3.org/1999/xlink" xmlns="http://www.w3.org/2000/svg" width="81" height="23" viewBox="0 0 81 23" fill="none">
<path d="M26.7777 19.2291V8.12458H31.0191C31.8408 8.12458 32.5901 8.20431 33.2668 8.36376C33.9435 8.52321 34.4812 8.80224 34.88 9.20087C35.2787 9.59949 35.4781 10.1633 35.4781 10.8922C35.4781 11.3705 35.3452 11.8489 35.0794 12.3272C34.8135 12.7942 34.451 13.1131 33.9918 13.2839V13.3523C34.5597 13.5003 35.0371 13.7851 35.4237 14.2065C35.8225 14.6279 36.0219 15.2087 36.0219 15.949C36.0219 16.7121 35.8104 17.3385 35.3875 17.8283C34.9646 18.3066 34.4026 18.6597 33.7018 18.8875C33.0009 19.1152 32.2275 19.2291 31.3817 19.2291H26.7777ZM29.8953 12.4639H30.9466C31.4542 12.4639 31.8288 12.3614 32.0704 12.1564C32.3121 11.9514 32.433 11.678 32.433 11.3364C32.433 10.9947 32.3121 10.7498 32.0704 10.6018C31.8288 10.4537 31.4542 10.3797 30.9466 10.3797H29.8953V12.4639ZM29.8953 16.9741H31.1641C32.3725 16.9741 32.9767 16.564 32.9767 15.744C32.9767 15.334 32.8257 15.0436 32.5236 14.8727C32.2336 14.7019 31.7804 14.6165 31.1641 14.6165H29.8953V16.9741Z" fill="#1d1916"/>
<path d="M37.6225 19.2291V10.6872H40.1601L40.3777 12.1564H40.4502C40.7885 11.5755 41.1873 11.1541 41.6465 10.8922C42.1177 10.6188 42.5769 10.4822 43.024 10.4822C43.302 10.4822 43.5255 10.4992 43.6947 10.5334C43.876 10.5562 44.027 10.5961 44.1479 10.653L43.6403 13.1814C43.4832 13.1473 43.3261 13.1188 43.169 13.096C43.012 13.0618 42.8307 13.0448 42.6253 13.0448C42.299 13.0448 41.9546 13.153 41.5921 13.3693C41.2417 13.5744 40.9577 13.9445 40.7402 14.4798V19.2291H37.6225Z" fill="#1d1916"/>
<path d="M45.1986 19.2291V10.6872H48.3163V19.2291H45.1986ZM46.7574 9.62797C46.2499 9.62797 45.839 9.49699 45.5249 9.23504C45.2107 8.9617 45.0536 8.60293 45.0536 8.15875C45.0536 7.71457 45.2107 7.3615 45.5249 7.09955C45.839 6.8262 46.2499 6.68953 46.7574 6.68953C47.2649 6.68953 47.6758 6.8262 47.99 7.09955C48.3042 7.3615 48.4613 7.71457 48.4613 8.15875C48.4613 8.60293 48.3042 8.9617 47.99 9.23504C47.6758 9.49699 47.2649 9.62797 46.7574 9.62797Z" fill="#1d1916"/>
<path d="M54.6256 19.4341C53.7435 19.4341 52.946 19.2576 52.233 18.9045C51.5321 18.5515 50.9763 18.0447 50.5654 17.3841C50.1546 16.7121 49.9491 15.9035 49.9491 14.9582C49.9491 14.0356 50.1546 13.2441 50.5654 12.5835C50.9884 11.9115 51.5321 11.3933 52.1968 11.0289C52.8614 10.6644 53.5623 10.4822 54.2994 10.4822C55.1936 10.4822 55.9307 10.6701 56.5107 11.0459C57.1029 11.4104 57.5379 11.9058 57.8158 12.5322C58.1058 13.1586 58.2508 13.8534 58.2508 14.6165C58.2508 14.867 58.2327 15.1119 58.1965 15.3511C58.1723 15.5789 58.1481 15.744 58.124 15.8465H52.9581C53.1031 16.359 53.3629 16.7178 53.7375 16.9228C54.1121 17.1164 54.5531 17.2132 55.0607 17.2132C55.6407 17.2132 56.257 17.0424 56.9095 16.7007L57.9246 18.4433C57.4412 18.7622 56.8974 19.007 56.2932 19.1779C55.689 19.3487 55.1332 19.4341 54.6256 19.4341ZM52.9218 13.9331H55.6044C55.6044 13.6028 55.5138 13.3181 55.3326 13.0789C55.1634 12.8284 54.8432 12.7031 54.3719 12.7031C54.0335 12.7031 53.7314 12.7999 53.4656 12.9935C53.1997 13.1871 53.0185 13.5003 52.9218 13.9331Z" fill="#1d1916"/>
<path d="M60.3989 19.2291V12.9764H59.2026V10.7897L60.3989 10.7043V10.5847C60.3989 9.96965 60.5077 9.40018 60.7252 8.87628C60.9548 8.35237 61.3294 7.93096 61.849 7.61206C62.3807 7.29316 63.0936 7.13372 63.9878 7.13372C64.4108 7.13372 64.7854 7.16788 65.1116 7.23622C65.45 7.30455 65.7158 7.37289 65.9092 7.44122L65.3654 9.5938C65.0391 9.47991 64.737 9.42296 64.4591 9.42296C64.1691 9.42296 63.9395 9.50269 63.7703 9.66214C63.6011 9.8102 63.5166 10.0835 63.5166 10.4822V10.6872H65.0391V12.9764H63.5166V19.2291H60.3989Z" fill="#1d1916"/>
<path d="M69.1782 19.4341C68.4774 19.4341 67.9215 19.3032 67.5106 19.0412C67.1119 18.7679 66.8219 18.392 66.6406 17.9137C66.4714 17.4239 66.3868 16.8602 66.3868 16.2224V7.33872H69.5045V16.3249C69.5045 16.6096 69.5589 16.8089 69.6676 16.9228C69.7885 17.0253 69.9033 17.0766 70.012 17.0766C70.0724 17.0766 70.1208 17.0766 70.157 17.0766C70.2054 17.0652 70.2658 17.0538 70.3383 17.0424L70.7008 19.195C70.5437 19.2633 70.3383 19.3203 70.0845 19.3658C69.8308 19.4114 69.5287 19.4341 69.1782 19.4341Z" fill="#1d1916"/>
<path d="M73.127 22.4409C72.8249 22.4409 72.5711 22.4238 72.3657 22.3897C72.1603 22.3555 71.9549 22.3156 71.7494 22.2701L72.2932 20.0492C72.3778 20.0606 72.4745 20.0776 72.5832 20.1004C72.692 20.1346 72.7887 20.1517 72.8732 20.1517C73.2962 20.1517 73.6164 20.0719 73.8339 19.9125C74.0514 19.753 74.2025 19.548 74.2871 19.2975L74.3958 18.9216L70.9519 10.6872H74.0695L75.1571 13.9673C75.29 14.3545 75.4048 14.7475 75.5015 15.1461C75.5982 15.5447 75.7009 15.9604 75.8096 16.3932H75.8821C75.9788 15.9832 76.0694 15.5789 76.154 15.1802C76.2507 14.7816 76.3534 14.3773 76.4622 13.9673L77.3685 10.6872H80.3411L77.296 19.0925C76.9818 19.8555 76.6434 20.482 76.2809 20.9717C75.9305 21.4728 75.5015 21.843 74.994 22.0822C74.4985 22.3213 73.8762 22.4409 73.127 22.4409Z" fill="#1d1916"/>
<path fill-rule="evenodd" clip-rule="evenodd" d="M22.325 5.3677C22.5343 5.24912 22.8059 5.31286 22.9317 5.51008L23.1497 5.85174C24.911 8.61262 23.1805 12.1795 19.8127 12.7298L19.5496 12.7727L19.7713 12.9582C22.7403 15.443 20.9986 20.0707 17.032 20.2367L15.6761 20.2935L0.921283 20.8082C0.677288 20.8167 0.472169 20.6372 0.463138 20.4072C0.454107 20.1772 0.644584 19.9839 0.888581 19.9754L15.6385 19.4609L15.6417 19.4607L16.9928 19.4042C20.1661 19.2714 21.5594 15.5692 19.1842 13.5814L17.5899 12.2472L19.6617 11.9086C22.4171 11.4584 23.833 8.54008 22.3919 6.28117L22.174 5.93952C22.0482 5.7423 22.1158 5.48629 22.325 5.3677Z" fill="#1d1916"/>
<path fill-rule="evenodd" clip-rule="evenodd" d="M4.67284 15.1665C4.7131 11.9616 5.94308 8.84082 7.83191 6.43223L8.36916 11.8436L8.33253 11.8468L8.36968 11.8489L8.37315 11.8838L8.3753 11.8492L14.3414 12.1779C11.782 14.1294 8.55366 15.3376 5.02088 15.4468C4.22529 17.0171 2.93475 18.3267 1.31566 19.1903L1.20277 19.2505C1.87461 17.505 3.02938 16.1731 4.67284 15.1665ZM8.37569 11.843L8.77921 5.33746C9.37663 4.71051 10.0303 4.13186 10.733 3.60865L11.3945 8.88893L11.359 8.89288L11.3953 8.89571L11.3996 8.92987L11.4026 8.89628L17.1887 9.34787C16.6761 10.0146 16.1058 10.6395 15.4844 11.2161L8.37569 11.843ZM11.4033 8.88794L11.9386 2.79507C12.4871 2.46073 13.0593 2.15779 13.6524 1.88898L14.3946 5.95686L14.3617 5.96219L14.3964 5.96665L14.4024 5.99919L14.4069 5.96799L18.883 6.54273C18.6288 7.0974 18.3395 7.63462 18.0177 8.15187L11.4033 8.88794ZM14.4088 5.95456L15.0782 1.32324C16.6653 0.779422 18.3736 0.470253 20.1567 0.440918C20.187 2.07871 19.933 3.65884 19.4377 5.13947L14.4088 5.95456Z" fill="#1d1916"/>
</svg>