<svg xmlns:xlink="http://www.w3.org/1999/xlink" xmlns="http://www.w3.org/2000/svg" width="75" height="24" viewBox="0 0 75 24" fill="none">
<path d="M38.5613 6.37472C37.9745 6.00847 37.339 5.72326 36.6679 5.52555C35.9903 5.3246 35.277 5.22412 34.5539 5.22412C33.578 5.22412 32.654 5.39914 31.811 5.7427C30.9583 6.09274 30.2061 6.57891 29.5739 7.18824C28.9384 7.79757 28.4326 8.52358 28.0695 9.35007C27.7128 10.1733 27.5312 11.0808 27.5312 12.0402C27.5312 12.9931 27.7128 13.8941 28.0695 14.7174C28.4326 15.5471 28.9351 16.2731 29.5641 16.8792C30.1899 17.4885 30.9421 17.9779 31.8013 18.328C32.654 18.6715 33.5813 18.8466 34.5539 18.8466C35.2543 18.8466 35.9513 18.7493 36.6193 18.5516C37.2774 18.3636 37.9097 18.0817 38.4965 17.7122C39.0704 17.3524 39.5729 16.9116 39.9944 16.4028C40.056 16.3282 40.0495 16.2213 39.9815 16.1532L38.2371 14.4257C38.2015 14.39 38.1561 14.3706 38.1042 14.3706C38.101 14.3706 38.101 14.3706 38.0977 14.3706C38.0458 14.3738 37.9972 14.3965 37.9615 14.4354C37.5271 14.941 37.0213 15.3332 36.4604 15.6022C35.8995 15.8712 35.2899 16.0073 34.648 16.0073C34.0708 16.0073 33.5359 15.9069 33.056 15.7092C32.5697 15.5082 32.1417 15.2295 31.7851 14.8762C31.4187 14.5164 31.1431 14.1048 30.9421 13.6154C30.7475 13.1325 30.647 12.6042 30.647 12.0402C30.647 11.4698 30.7475 10.935 30.9421 10.4521C31.1431 9.9594 31.4155 9.54454 31.7689 9.18801C32.1158 8.83473 32.534 8.54951 33.0139 8.34856C33.4937 8.14437 34.0125 8.04066 34.5539 8.04066C35.2186 8.04066 35.8476 8.18327 36.4312 8.46524C37.0116 8.74722 37.5336 9.16857 37.9778 9.71956C38.0102 9.76169 38.0588 9.78438 38.1139 9.78762C38.1172 9.78762 38.1204 9.78762 38.1237 9.78762C38.1723 9.78762 38.2209 9.76818 38.2566 9.73252L40.0593 7.94991C40.1274 7.88184 40.1338 7.77488 40.0755 7.70034C39.6605 7.19148 39.1514 6.74421 38.5613 6.37472Z" fill="#1D3D64"/>
<path d="M48.9844 9.51562C48.2355 8.8674 47.185 8.54004 45.8589 8.54004C45.1553 8.54004 44.4388 8.62755 43.7255 8.80581C43.0349 8.97759 42.2924 9.24336 41.5175 9.59016C41.4722 9.60961 41.4365 9.64851 41.417 9.69712C41.4008 9.74574 41.4041 9.7976 41.4268 9.84297L42.3476 11.7001C42.38 11.765 42.4481 11.8039 42.5162 11.8039C42.5421 11.8039 42.568 11.7974 42.5907 11.7876C43.1841 11.5251 43.7158 11.3274 44.1794 11.1978C44.6269 11.0746 45.0483 11.0098 45.4342 11.0098C46.047 11.0098 46.5138 11.1394 46.8219 11.389C47.1169 11.6321 47.2693 12.0048 47.2693 12.4942V12.9382C46.5884 12.7276 45.8621 12.6206 45.1067 12.6206C43.8552 12.6206 42.8566 12.8896 42.1368 13.4244C41.3976 13.9657 41.0215 14.7371 41.0215 15.7191C41.0215 16.3317 41.1804 16.8795 41.4916 17.3494C41.8029 17.8194 42.2438 18.1921 42.7982 18.4514C43.3494 18.7139 43.9881 18.8468 44.6982 18.8468C45.2591 18.8468 45.7811 18.7755 46.2382 18.6361C46.6046 18.5292 46.9418 18.3769 47.266 18.1694V18.6491C47.266 18.7528 47.3503 18.8371 47.4541 18.8371H49.9344C50.0382 18.8371 50.1225 18.7528 50.1225 18.6491V12.2706C50.1257 11.0973 49.7399 10.1671 48.9844 9.51562ZM43.7871 15.664C43.7871 15.3594 43.9168 15.1228 44.1859 14.9477C44.481 14.7533 44.9024 14.6528 45.4342 14.6528C45.7876 14.6528 46.1345 14.6852 46.4684 14.7435C46.7181 14.7889 46.9645 14.8537 47.198 14.938C47.2401 14.9542 47.2693 14.9931 47.2693 15.0385V16.0789C47.2693 16.1145 47.2498 16.1502 47.2206 16.1696C46.9872 16.322 46.7278 16.4419 46.449 16.5229C46.1053 16.6234 45.7325 16.672 45.3401 16.672C44.8571 16.672 44.4647 16.5748 44.1762 16.3803C43.9103 16.2021 43.7871 15.9752 43.7871 15.664Z" fill="#1D3D64"/>
<path d="M58.3748 8.53336H55.8231V5.92102C55.8231 5.86268 55.7972 5.81082 55.7518 5.77516C55.7194 5.74923 55.6772 5.73303 55.6351 5.73303C55.6221 5.73303 55.6059 5.73303 55.5929 5.73627L53.0737 6.30347C52.9894 6.32291 52.9278 6.39746 52.9278 6.48497V8.53012H51.1511C51.0473 8.53012 50.963 8.61439 50.963 8.7181V10.8119C50.963 10.9156 51.0473 10.9999 51.1511 10.9999H52.9278V15.8032C52.9278 16.782 53.2261 17.5437 53.8097 18.0655C54.3901 18.5808 55.2428 18.8401 56.3484 18.8401C56.6207 18.8401 56.9482 18.8142 57.3567 18.7623C57.7685 18.7105 58.0959 18.6392 58.3586 18.5517C58.4331 18.5257 58.485 18.4544 58.485 18.3734V16.2991C58.485 16.2375 58.4558 16.1824 58.4072 16.1468C58.3748 16.1241 58.3359 16.1111 58.3002 16.1111C58.2808 16.1111 58.2581 16.1143 58.2386 16.1208C58.0052 16.2051 57.7944 16.257 57.6031 16.2894C57.4118 16.3185 57.1946 16.3315 56.9579 16.3315C56.5235 16.3315 56.2187 16.2537 56.0598 16.0981C55.9009 15.9426 55.8231 15.6703 55.8231 15.2846V11.0031H58.3748C58.4785 11.0031 58.5628 10.9188 58.5628 10.8151V8.72135C58.5596 8.61763 58.4753 8.53336 58.3748 8.53336Z" fill="#1D3D64"/>
<path d="M62.4202 8.53662H59.9009C59.7972 8.53662 59.7129 8.62089 59.7129 8.72461V18.6522C59.7129 18.7559 59.7972 18.8401 59.9009 18.8401H62.4202C62.5239 18.8401 62.6082 18.7559 62.6082 18.6522V8.72461C62.6082 8.62089 62.5239 8.53662 62.4202 8.53662Z" fill="#1D3D64"/>
<path d="M61.1563 4.10938C60.7153 4.10938 60.3295 4.26819 60.015 4.57934C59.6973 4.89048 59.5352 5.27618 59.5352 5.73318C59.5352 6.17397 59.6973 6.55967 60.015 6.8773C60.3328 7.19493 60.7186 7.35698 61.1595 7.35698C61.6134 7.35698 62.0025 7.19493 62.3138 6.8773C62.6218 6.55967 62.7806 6.17721 62.7806 5.73642C62.7806 5.28266 62.625 4.89373 62.3138 4.58582C61.9993 4.26819 61.6102 4.10938 61.1563 4.10938Z" fill="#1D3D64"/>
<path d="M73.6258 11.0843C73.1654 10.3065 72.5267 9.68091 71.7194 9.22392C70.912 8.77016 70.0074 8.54004 69.025 8.54004C68.0459 8.54004 67.1381 8.77016 66.334 9.22392C65.5267 9.68416 64.8847 10.3097 64.4276 11.0843C63.9639 11.8654 63.7305 12.747 63.7305 13.7064C63.7305 14.6658 63.9704 15.5441 64.4405 16.322C64.9042 17.0901 65.5461 17.7124 66.3437 18.1694C67.1413 18.6232 68.0459 18.8533 69.0283 18.8533C70.0237 18.8533 70.9347 18.6232 71.7323 18.1694C72.5299 17.7124 73.1654 17.0901 73.629 16.322C74.0927 15.5474 74.3261 14.6658 74.3261 13.7064C74.3229 12.7438 74.0862 11.8622 73.6258 11.0843ZM70.2766 15.9525C69.9102 16.1761 69.4887 16.2896 69.025 16.2896C68.5744 16.2896 68.1561 16.1761 67.7833 15.9492C67.4072 15.7224 67.1089 15.408 66.8917 15.0158C66.6744 14.6204 66.5674 14.1893 66.5674 13.7032C66.5674 13.2073 66.6777 12.7632 66.8917 12.3808C67.1089 11.9918 67.4104 11.6774 67.7865 11.4473C68.1594 11.214 68.5776 11.0973 69.0283 11.0973C69.4919 11.0973 69.9134 11.214 70.2798 11.4473C70.6462 11.6742 70.9477 11.9886 71.1747 12.3808C71.3951 12.7697 71.5086 13.217 71.5086 13.7032C71.5086 14.1828 71.3984 14.6107 71.1747 15.0158C70.9412 15.4177 70.6494 15.7256 70.2766 15.9525Z" fill="#1D3D64"/>
<path d="M21.9768 18.7045C21.3251 19.6671 20.5405 20.526 19.6489 21.2553C19.503 21.3817 19.3571 21.4984 19.2015 21.6086C19.1691 21.6377 19.1302 21.6637 19.0977 21.6928L18.9648 21.7868C18.7994 21.9003 18.6406 22.0072 18.4817 22.1109C16.5396 23.3555 14.3219 24.0005 12.0134 24.0005C11.7411 24.0005 11.4687 23.9973 11.1964 23.9778C5.16582 23.5727 0.471052 18.9184 0.0333494 12.8932C-0.248726 9.03625 1.26864 5.38026 4.20287 2.87487C6.36869 1.02419 9.13756 0 12.0005 0C13.9815 0 15.9528 0.499131 17.6938 1.43906C18.3455 1.7891 18.9745 2.21044 19.5549 2.67717C19.6781 2.7744 19.6846 2.95915 19.5711 3.0661L16.0111 6.39797C15.9009 6.49845 15.7388 6.52114 15.6091 6.44659C14.5164 5.81133 13.2714 5.37702 11.9972 5.37702C10.8268 5.37702 10.3113 5.54232 9.3094 6.12896C9.13432 6.2262 8.94303 6.27805 8.75498 6.27805C8.53451 6.27805 8.32376 6.21323 8.13895 6.08683L5.68458 3.85369C5.56461 3.74674 5.37656 3.83101 5.37656 3.98982V12.031C5.39926 15.6676 8.37564 18.6267 12.0134 18.6267C13.0996 18.6267 14.176 18.3642 15.1292 17.8521L15.22 17.8002C15.2751 17.7711 15.3335 17.7387 15.3886 17.7063L15.4599 17.6641C15.5118 17.6317 15.5669 17.5993 15.6253 17.5572L15.6642 17.528L15.7063 17.5053C15.7258 17.4956 15.7452 17.4859 15.7582 17.4729C15.8198 17.4308 15.8522 17.4081 15.8912 17.3789L15.9657 17.3238L15.9852 17.3141L16.0144 17.2914C16.0857 17.246 16.1505 17.1877 16.2154 17.1326L16.2446 17.1099C16.7374 16.7047 17.188 16.2089 17.5479 15.687C18.0602 14.9254 18.9097 14.4749 19.8143 14.4749C20.0834 14.4749 20.346 14.5138 20.5956 14.5915C21.578 14.9027 22.2881 15.7065 22.4534 16.7631C22.5475 17.4372 22.3627 18.1308 21.9768 18.7045Z" fill="#1D3D64"/>
</svg>