<svg width="80" height="12" viewBox="0 0 80 12" fill="none" xmlns="http://www.w3.org/2000/svg">
<g clip-path="url(#clip0_20_767)">
<path d="M6.88073 11.8722V7.58879H2.30709V11.8722H-0.5V0.849609H2.30709V5.3845H6.88073V0.849609H9.6878V11.8722H6.88073Z" fill="#3A6296"/>
<path d="M23.1085 6.34567C23.1085 9.55822 20.5532 11.9992 17.1307 11.9992C13.7082 11.9992 11.1689 9.57416 11.1689 6.34567C11.1689 3.11719 13.7241 0.755859 17.1307 0.755859C20.5373 0.755859 23.1085 3.14906 23.1085 6.34567ZM14.0398 6.36161C14.0398 8.21995 15.4747 9.65268 17.1626 9.65268C18.8505 9.65268 20.2216 8.21995 20.2216 6.36161C20.2216 4.50327 18.8653 3.1024 17.1626 3.1024C15.4599 3.1024 14.0398 4.5044 14.0398 6.36161Z" fill="#3A6296"/>
<path d="M27.6023 11.8722L23.3125 0.849609H26.3087L29.1318 8.96008L31.9548 0.849609H34.8406L30.504 11.8733H27.6023V11.8722Z" fill="#3A6296"/>
<path d="M38.734 3.0539V5.24339H44.0017V7.44768H38.734V9.6679H44.7425V11.8722H35.9258V0.849609H44.5682V3.0539H38.7329H38.734Z" fill="#3A6296"/>
<path d="M51.5723 8.77004H49.3646V11.8722H46.5576V0.849609H51.4936C54.4113 0.849609 56.0832 2.23568 56.0832 4.69147C56.0832 6.37684 55.3732 7.5888 54.0807 8.23518L56.3989 11.8733H53.2123L51.5723 8.77117V8.77004ZM51.4936 6.56574C52.7085 6.56574 53.4174 5.95123 53.4174 4.78592C53.4174 3.62062 52.7074 3.0539 51.4936 3.0539H49.3646V6.56574H51.4936Z" fill="#3A6296"/>
<g opacity="0.55">
<path d="M59.884 9.38374L58.8275 11.8714H56.8877L61.7611 0.847656H63.669L68.4945 11.8714H66.508L65.4515 9.38374H59.884ZM62.6603 2.83231L60.5781 7.73023H64.7414L62.6603 2.83231Z" fill="#3A6296"/>
</g>
<g opacity="0.55">
<path d="M71.8064 1.10158C71.8064 1.73202 71.3494 2.18836 70.7499 2.18836C70.1504 2.18836 69.6934 1.73202 69.6934 1.10158C69.6934 0.471128 70.1504 0 70.7499 0C71.3494 0 71.8064 0.456335 71.8064 1.10158ZM69.8507 11.8727V3.49591H71.6491V11.8727H69.8507Z" fill="#3A6296"/>
</g>
<g opacity="0.55">
<path d="M76.1455 5.16366C76.7131 4.03022 77.7229 3.43164 79.0472 3.43164V5.16366C77.3593 5.06921 76.2868 6.06154 76.1455 7.49427V11.8721H74.3311V3.49537H76.1455V5.1648V5.16366Z" fill="#3A6296"/>
</g>
</g>
<defs>
<clipPath id="clip0_20_767">
<rect width="80" height="12" fill="white"/>
</clipPath>
</defs>
</svg>
