<svg width="81" height="18" viewBox="0 0 81 18" fill="none" xmlns="http://www.w3.org/2000/svg">
<g clip-path="url(#clip0_20_781)">
<path d="M4.3011 12.4739L2.77992 14.0791V17.7635H0V0H2.77992V10.4212L7.78896 5.26321H11.2768L6.16288 10.5528L11.7754 17.7635H8.52322L4.3011 12.4739Z" fill="#336cf1"/>
<path d="M24.6955 9.92041V17.7638H21.9156V10.8677C21.9156 8.7886 20.8144 7.60437 19.0571 7.60437C17.4051 7.60437 15.9366 8.68334 15.9366 10.973V17.7626H13.1562V5.26232H15.8835V7.1045C16.6964 5.63051 18.1649 5.02539 19.791 5.02539C22.6235 5.02539 24.6955 6.81474 24.6955 9.92041Z" fill="#336cf1"/>
<path d="M41.4102 11.5276C41.4102 8.00134 43.9803 5.02734 47.8355 5.02734C51.4546 5.02734 54.1033 7.94891 54.1033 11.4224C54.1033 11.7221 54.077 12.0213 54.0247 12.3164H44.0589C44.3735 14.1858 45.8409 15.5269 47.9926 15.5269C49.304 15.5269 50.6154 15.0267 51.4019 13.9741L53.2649 15.4477C52.1374 17.0529 50.1703 18.0003 48.0198 18.0003C44.295 18.0011 41.4102 15.1852 41.4102 11.5276ZM51.3497 10.2645C51.1136 8.65929 49.6187 7.50106 47.8092 7.50106C46.0523 7.50106 44.636 8.60605 44.1642 10.2645H51.3497Z" fill="#336cf1"/>
<path d="M57.246 7.97287H54.9375V5.26222H57.246V2.07812H60.0259V5.26222H62.5037V7.97287H60.0259V17.7625H57.246V7.97287Z" fill="#336cf1"/>
<path d="M68.832 11.5003C68.832 7.89482 71.7432 4.99805 75.3886 4.99805C77.7226 4.99805 79.7419 6.15627 80.9484 7.94562L78.6399 9.28672C77.932 8.23375 76.7518 7.60222 75.3882 7.60222C73.2113 7.60222 71.4803 9.36556 71.4803 11.4971C71.4803 13.6286 73.2113 15.4184 75.3882 15.4184C76.8057 15.4184 78.0105 14.734 78.7185 13.6026L81.0007 14.9734C79.8205 16.8152 77.7485 17.9994 75.3886 17.9994C71.7432 17.9994 68.832 15.0786 68.832 11.5003Z" fill="#336cf1"/>
<path d="M64.082 5.26367H66.862V17.7639H64.082V5.26367Z" fill="#336cf1"/>
<path d="M65.5116 3.57821C66.4457 3.57821 67.2029 2.83404 67.2029 1.91606C67.2029 0.998077 66.4457 0.253906 65.5116 0.253906C64.5775 0.253906 63.8203 0.998077 63.8203 1.91606C63.8203 2.83404 64.5775 3.57821 65.5116 3.57821Z" fill="#336cf1"/>
<path d="M32.3013 5.14258V7.82478C31.5345 8.00857 30.8431 8.42574 30.3217 9.01917L28.0156 7.68132C28.5266 6.99417 29.1686 6.41585 29.9044 5.98C30.6401 5.54416 31.4549 5.25949 32.3013 5.14258Z" fill="#336cf1"/>
<path d="M32.303 15.3202V17.9979C30.757 17.7821 29.341 17.0126 28.3161 15.8313C27.2912 14.65 26.7267 13.1366 26.7266 11.5704C26.7245 10.7783 26.8692 9.99281 27.1535 9.25391L29.4773 10.6031C29.3519 11.0951 29.3242 11.6071 29.3959 12.1099C29.4677 12.6126 29.6374 13.0962 29.8954 13.5331C30.1533 13.9701 30.4946 14.3517 30.8995 14.6563C31.3045 14.9609 31.7653 15.1825 32.2556 15.3084L32.303 15.3202Z" fill="#336cf1"/>
<path d="M39.6702 11.5703C39.6706 13.1368 39.1063 14.6506 38.0813 15.8323C37.0564 17.0139 35.64 17.7837 34.0938 17.9994V15.3205C34.9332 15.1183 35.6804 14.6384 36.2148 13.9582C36.7493 13.2779 37.04 12.4369 37.04 11.5707C37.04 10.7044 36.7493 9.86341 36.2148 9.18315C35.6804 8.50289 34.9332 8.02302 34.0938 7.82087V5.13867C35.6405 5.35446 37.0571 6.12455 38.0821 7.30672C39.1071 8.48889 39.6712 10.0033 39.6702 11.5703Z" fill="#336cf1"/>
</g>
<defs>
<clipPath id="clip0_20_781">
<rect width="81" height="18" fill="white"/>
</clipPath>
</defs>
</svg>
