<svg xmlns:xlink="http://www.w3.org/1999/xlink" xmlns="http://www.w3.org/2000/svg" width="140" height="27" viewBox="0 0 140 27" fill="none">
<path d="M11.3131 5.03357V5.02734H10.6496V10.611H15.4288L7.72632 24.4556L11.3134 24.4553V24.4493C16.6298 24.3861 20.9062 20.0583 20.9062 14.7416C20.9062 9.42465 16.6298 5.09679 11.3134 5.03357H11.3131Z" fill="#F3A623"/>
<path d="M9.5931 19.922V19.9282H10.2568V14.3446H5.47772L13.1802 0.5L9.5931 0.500231V0.506229C4.27665 0.569443 0 4.89731 0 10.214C0 15.5309 4.27665 19.8588 9.59287 19.9218L9.5931 19.922Z" fill="#07A0C3"/>
<path d="M30.0937 16.1822C30.9611 17.6125 32.3212 18.3395 34.1973 18.3395C35.8621 18.3395 36.6359 17.5892 36.6359 16.7215C36.6359 16.1118 36.2843 15.6898 35.7449 15.3615C35.3065 15.094 34.833 14.8888 34.338 14.7518C33.9393 14.5877 33.0013 14.2827 32.5323 14.0952C29.9762 13.1573 28.5694 11.8206 28.5694 9.35848C28.5694 7.95139 29.0852 6.82576 30.1405 6.00513C31.1958 5.16074 32.4854 4.73877 34.0095 4.73877C36.3779 4.73877 38.1837 5.63 39.4498 7.41199L37.0345 9.24105C36.3779 8.39689 35.3933 7.97492 34.1034 7.97492C32.9076 7.97492 32.1336 8.53785 32.1336 9.31142C32.1336 9.85081 32.2743 10.1791 32.7669 10.4839C33.0248 10.6246 33.2827 10.7418 33.4936 10.8357L34.6663 11.2344C35.2055 11.4219 35.6745 11.586 36.0732 11.7502C39.0514 12.8759 40.2472 14.2594 40.2472 16.6044C40.2472 19.6292 38.1837 21.5992 34.1737 21.5992C30.8675 21.5992 28.5694 20.1217 27.467 17.9879L30.0937 16.1822ZM41.7315 25.8668V9.52252H45.2254V11.0701C45.5772 10.0384 46.9605 9.31142 48.7428 9.31142C50.4078 9.31142 51.8147 9.89765 52.9168 11.0936C54.0426 12.2661 54.6053 13.72 54.6053 15.4319C54.6053 17.1437 54.0424 18.5974 52.9168 19.7934C51.8147 20.9659 50.4078 21.5521 48.7428 21.5521C46.9605 21.5521 45.5772 20.8254 45.2254 19.7934V25.8668H41.7313H41.7315ZM50.2435 17.5422C50.5249 17.2685 50.7471 16.9401 50.8963 16.5771C51.0456 16.2141 51.1187 15.8243 51.1112 15.4319C51.1209 15.0427 51.0487 14.6558 50.8992 14.2962C50.7498 13.9367 50.5265 13.6126 50.2438 13.3449C49.9668 13.0613 49.6344 12.8379 49.2672 12.6886C48.9 12.5393 48.506 12.4673 48.1097 12.4772C47.703 12.4671 47.2983 12.5386 46.9197 12.6876C46.5411 12.8366 46.1963 13.06 45.9055 13.3447C45.6195 13.6111 45.3925 13.9345 45.239 14.2939C45.0855 14.6534 45.0089 15.041 45.0143 15.4319C45.0111 15.8258 45.0886 16.2162 45.2418 16.5791C45.3951 16.942 45.6209 17.2698 45.9055 17.5422C46.5014 18.1013 47.2928 18.4045 48.1097 18.3866C48.5038 18.3953 48.8956 18.325 49.2621 18.18C49.6286 18.035 49.9623 17.8181 50.2438 17.5422H50.2435ZM65.3866 11.0701V9.52252H68.8806V21.341H65.3866V19.7934C65.035 20.8252 63.6514 21.5521 61.8692 21.5521C60.2044 21.5521 58.7973 20.9659 57.6717 19.7934C56.5696 18.5974 56.0069 17.1437 56.0069 15.4319C56.0069 13.72 56.5698 12.2661 57.6717 11.0936C58.7975 9.89765 60.2044 9.31142 61.8692 9.31142C63.6514 9.31142 65.035 10.0384 65.3866 11.0701ZM64.6831 17.5422C65.2737 17.0005 65.606 16.2331 65.5977 15.4319C65.604 15.0388 65.5256 14.6489 65.3678 14.2888C65.21 13.9286 64.9764 13.6067 64.6831 13.3449C64.3983 13.0588 64.0578 12.8342 63.6826 12.685C63.3075 12.5357 62.9058 12.465 62.5022 12.4772C62.106 12.4673 61.7121 12.5393 61.3449 12.6885C60.9778 12.8378 60.6454 13.0612 60.3684 13.3447C60.0857 13.6124 59.8623 13.9365 59.7129 14.2961C59.5635 14.6557 59.4913 15.0426 59.5009 15.4319C59.4934 15.8243 59.5665 16.214 59.7157 16.577C59.8649 16.94 60.0871 17.2685 60.3684 17.5422C60.6498 17.8181 60.9836 18.035 61.3501 18.18C61.7166 18.325 62.1084 18.3953 62.5025 18.3866C62.9038 18.3975 63.3033 18.3285 63.6776 18.1835C64.052 18.0385 64.3938 17.8205 64.6831 17.5422ZM70.6739 21.341V13.4386C70.6739 10.6246 72.1982 9.21775 75.2701 9.21775C76.0647 9.20391 76.8588 9.2745 77.6386 9.42885V12.5007C77.1731 12.4267 76.7028 12.3875 76.2315 12.3833C74.8011 12.3833 74.168 12.8055 74.168 14.1891V21.341H70.6739ZM79.1947 21.341V4.9967H82.6888V14.0248L86.5813 9.52252H90.6381L85.9247 14.869L91.0368 21.341H87.0972L83.6737 16.9795L82.6888 18.0347V21.341H79.1947ZM92.1587 21.341V4.9967H99.0527C100.436 4.9967 101.679 5.51257 102.828 6.52099C103.977 7.52919 104.563 8.86592 104.563 10.5307C104.563 12.1254 104.001 13.4386 102.875 14.4938C101.749 15.5491 100.483 16.065 99.0527 16.065H95.7697V21.3413H92.1587V21.341ZM95.7697 12.782H98.8419C99.3636 12.7784 99.8683 12.5963 100.272 12.2661C100.718 11.9145 100.952 11.328 100.952 10.5309C100.952 9.73361 100.718 9.17068 100.272 8.81908C99.8703 8.48251 99.366 8.29234 98.8419 8.27969H95.7697V12.782ZM105.847 4.9967H109.341V16.956C109.341 18.0112 109.739 18.4802 110.701 18.4802C110.985 18.4895 111.27 18.4576 111.545 18.3863V21.4818C111.146 21.599 110.584 21.646 109.88 21.646C107.183 21.646 105.847 20.2625 105.847 17.4956V4.99647V4.9967ZM112.865 9.52252H116.359V16.2761C116.359 17.6596 117.085 18.5038 118.399 18.5038C119.688 18.5038 120.579 17.5422 120.579 16.1589V9.52252H124.074V17.1906C124.074 18.1284 124.308 18.5038 124.941 18.5038C125.137 18.498 125.333 18.4823 125.528 18.4567V21.3646C125.016 21.5039 124.487 21.5671 123.957 21.5521C123.183 21.5521 122.526 21.4114 122.034 21.1299C121.494 20.7783 121.143 20.3561 120.978 19.8638C120.392 21.0127 119.22 21.599 117.508 21.599C114.53 21.599 112.865 19.7699 112.865 16.698V9.52252H112.865ZM128.591 22.3026C129.787 23.0529 130.983 23.428 132.225 23.428C133.234 23.428 134.054 23.2172 134.641 22.8185C135.321 22.3495 135.672 21.4818 135.672 20.2392V19.981C135.18 20.8254 133.773 21.4114 132.061 21.4114C130.396 21.4114 128.989 20.8485 127.864 19.6995C126.762 18.5506 126.199 17.1202 126.199 15.4319C126.199 13.72 126.762 12.2661 127.864 11.0936C128.989 9.89765 130.396 9.31142 132.061 9.31142C133.843 9.31142 135.227 10.0384 135.579 11.0701V9.52252H139.073V19.3715C139.073 22.1148 138.627 23.8971 137.009 25.1399C135.86 26.0544 134.43 26.4999 132.718 26.4999C130.42 26.4999 128.497 25.9372 126.926 24.8351L128.591 22.3026ZM130.56 17.4953C130.842 17.7713 131.176 17.9882 131.542 18.1332C131.909 18.2782 132.3 18.3484 132.694 18.3397C133.096 18.3507 133.495 18.2816 133.87 18.1367C134.244 17.9917 134.586 17.7737 134.875 17.4953C135.168 17.2382 135.401 16.9205 135.559 16.5642C135.717 16.2079 135.796 15.8216 135.79 15.4319C135.796 15.0388 135.718 14.6489 135.56 14.2888C135.402 13.9286 135.168 13.6067 134.875 13.3449C134.59 13.0588 134.25 12.8342 133.875 12.685C133.5 12.5358 133.098 12.465 132.694 12.4772C132.298 12.4673 131.904 12.5392 131.537 12.6885C131.17 12.8378 130.837 13.0611 130.56 13.3447C130.278 13.6124 130.054 13.9365 129.905 14.2961C129.755 14.6557 129.683 15.0426 129.693 15.4319C129.683 15.8176 129.756 16.201 129.905 16.5567C130.055 16.9124 130.278 17.2323 130.56 17.4953Z" fill="#2C3E53"/>
</svg>