<svg xmlns:xlink="http://www.w3.org/1999/xlink" xmlns="http://www.w3.org/2000/svg" id="Logo-TopQuadrant" width="430.503" height="101.828" viewBox="0 0 430.503 101.828"><g id="Group_1" data-name="Group 1" transform="translate(110.04 25.511)"><path id="Path_1" data-name="Path 1" d="M187.238,44.352V50.2H197.9V83.558h6.46V50.2h10.6V44.352H187.238Z" transform="translate(-187.238 -43.797)" fill="#094c7e"/><path id="Path_2" data-name="Path 2" d="M236.8,85.4a9.221,9.221,0,1,1,9.226-9.226A9.035,9.035,0,0,1,236.8,85.4m0-24.139c-8.834,0-15.358,6.351-15.358,14.912,0,8.617,6.524,14.913,15.358,14.913,8.89,0,15.35-6.3,15.35-14.913,0-8.562-6.46-14.912-15.35-14.912" transform="translate(-201.339 -50.768)" fill="#094c7e"/><path id="Path_3" data-name="Path 3" d="M293.12,85.436a9.195,9.195,0,1,1,9.272-9.171,8.958,8.958,0,0,1-9.272,9.171m1.547-24.084c-5.2,0-9.226,2.548-10.773,6.415v-.173l-1.1-5.687h-5.25v39.151h6.351V85.327a11.836,11.836,0,0,0,10.436,5.851c8.834,0,14.412-6.351,14.412-14.859,0-8.28-5.35-14.967-14.075-14.967" transform="translate(-224.471 -50.806)" fill="#094c7e"/><path id="Path_4" data-name="Path 4" d="M339.159,63.57c0-7.843,5.577-14.084,13.42-14.084,7.9,0,13.475,6.241,13.475,14.084s-5.578,14.076-13.475,14.076c-7.734,0-13.42-6.405-13.42-14.076m33.355,0c0-11.491-8.562-20.162-19.935-20.162-11.327,0-19.89,8.671-19.89,20.162,0,6.124,2.766,11.537,7.789,16.124l11.828,10.754h7.952l-9.116-8.488a10.425,10.425,0,0,0,3.53.5c10.163,0,17.843-8.126,17.843-18.889" transform="translate(-247.208 -43.408)" fill="#094c7e"/><path id="Path_5" data-name="Path 5" d="M425.044,62.3V77.71c0,5.468-2.985,8.443-7.516,8.443-3.585,0-7.124-1.874-7.124-8.006V62.3h-6.3V79.083c0,8.79,5.469,12.484,11.491,12.484,4.64,0,7.9-2.093,9.663-5.687l.773,5.077h5.413V62.3h-6.4Z" transform="translate(-276.654 -51.196)" fill="#094c7e"/><path id="Path_6" data-name="Path 6" d="M470.157,85.4a9.194,9.194,0,1,1,9.171-9.226,8.884,8.884,0,0,1-9.171,9.226m10.218-23.529-.992,5.469v-.219a12,12,0,0,0-10.49-5.859c-8.844,0-14.421,6.351-14.421,14.858,0,8.289,5.359,14.968,14.084,14.968,5.25,0,9.227-2.484,10.827-6.405v5.85h6.351V61.868h-5.359Z" transform="translate(-297.418 -50.768)" fill="#094c7e"/><path id="Path_7" data-name="Path 7" d="M527.285,78.427a9.194,9.194,0,1,1,9.171-9.226,8.889,8.889,0,0,1-9.171,9.226m9.226-34.074v15.8a12,12,0,0,0-10.49-5.859c-8.835,0-14.422,6.351-14.422,14.858,0,8.29,5.359,14.968,14.084,14.968,5.25,0,9.226-2.484,10.827-6.405v5.85h6.3V44.353Z" transform="translate(-320.972 -43.798)" fill="#094c7e"/><path id="Path_8" data-name="Path 8" d="M576.878,66.48,576,62.168h-5.2v28.66h6.351L577.1,73.214c.219-4.413,3.476-6.351,9.008-5.632l.055-5.469c-4.923-.665-7.734,1.329-9.281,4.367" transform="translate(-345.381 -51.067)" fill="#094c7e"/><path id="Path_9" data-name="Path 9" d="M610.918,85.4a9.194,9.194,0,1,1,9.171-9.226,8.891,8.891,0,0,1-9.171,9.226m10.218-23.529-.992,5.469v-.219a12,12,0,0,0-10.5-5.859c-8.834,0-14.412,6.351-14.412,14.858,0,8.289,5.359,14.968,14.084,14.968,5.25,0,9.226-2.484,10.827-6.405v5.85h6.351V61.868Z" transform="translate(-355.454 -50.768)" fill="#094c7e"/><path id="Path_10" data-name="Path 10" d="M670.468,61.259c-4.586,0-7.789,1.993-9.554,5.414l-.883-4.8h-5.414V90.529h6.406v-15.4c0-5.468,2.984-8.4,7.516-8.4,3.584,0,7.069,1.828,7.069,7.952v15.85h6.405V73.742c0-8.78-5.468-12.483-11.546-12.483" transform="translate(-379.939 -50.768)" fill="#094c7e"/><path id="Path_11" data-name="Path 11" d="M714.159,54.9V44.353h-6.3V54.9h-4.477v4.968h4.477V83.559h6.3V59.866h6.351V54.9h-6.351Z" transform="translate(-400.046 -43.798)" fill="#094c7e"/></g><g id="Group_2" data-name="Group 2"><path id="Path_12" data-name="Path 12" d="M46.551,78.457a7,7,0,0,0,0-14,7.646,7.646,0,0,1-7.637-7.637,7,7,0,1,0-7,7,7.634,7.634,0,0,1,0,15.268,7,7,0,1,0,7,7,7.644,7.644,0,0,1,7.637-7.632" transform="translate(-10.274 -20.544)" fill="#094c7e"/><path id="Path_13" data-name="Path 13" d="M121.238,63.824a7,7,0,1,0-7-7,7.643,7.643,0,0,1-7.637,7.632,7,7,0,0,0,0,14,7.646,7.646,0,0,1,7.637,7.638,7,7,0,1,0,7-7,7.634,7.634,0,0,1,0-15.268" transform="translate(-41.069 -20.544)" fill="#094c7e"/><path id="Path_14" data-name="Path 14" d="M86.076,114.266a7.643,7.643,0,0,1-7.632-7.637,7,7,0,0,0-14,0,7.645,7.645,0,0,1-7.637,7.637,7,7,0,1,0,7,7,7.635,7.635,0,0,1,15.269,0,7,7,0,1,0,7-7" transform="translate(-20.539 -41.079)" fill="#094c7e"/><path id="Path_15" data-name="Path 15" d="M163.42,81.723a7,7,0,1,0-7,7,7,7,0,0,0,7-7" transform="translate(-61.606 -30.808)" fill="#094c7e"/><path id="Path_16" data-name="Path 16" d="M14,81.723a7,7,0,1,0-7,7,7,7,0,0,0,7-7" transform="translate(0 -30.808)" fill="#094c7e"/><path id="Path_17" data-name="Path 17" d="M88.71,156.445a7,7,0,1,0-7,7,7,7,0,0,0,7-7" transform="translate(-30.803 -61.617)" fill="#094c7e"/><path id="Path_18" data-name="Path 18" d="M56.815,38.917a7.643,7.643,0,0,1,7.632,7.637,7,7,0,0,0,14,0,7.645,7.645,0,0,1,7.636-7.637,7,7,0,1,0-7-7,7.635,7.635,0,0,1-15.269,0,7,7,0,1,0-7,7" transform="translate(-20.539 -10.275)" fill="#f58220"/><path id="Path_19" data-name="Path 19" d="M88.71,7a7,7,0,1,0-7,7,7,7,0,0,0,7-7" transform="translate(-30.803)" fill="#f58220"/></g></svg>