<svg width="98" height="32" viewBox="0 0 98 32" fill="none" xmlns="http://www.w3.org/2000/svg">
<g clip-path="url(#clip0_20_762)">
<path d="M-0.5 0H6.5L27.5 32H20.5L-0.5 0Z" fill="#C8960F"/>
<path d="M20.5 0H27.5L6.5 32H-0.5L20.5 0Z" fill="#E9B430"/>
<path d="M43.15 14.375H47.125C47.825 14.375 48.4 14.2083 48.85 13.875C49.3 13.5417 49.525 13 49.525 12.25C49.525 11.8333 49.45 11.4917 49.3 11.225C49.15 10.9583 48.95 10.75 48.7 10.6C48.45 10.45 48.1583 10.35 47.825 10.3C47.5083 10.2333 47.175 10.2 46.825 10.2H43.15V14.375ZM39.225 7.15H47.625C48.475 7.15 49.25 7.225 49.95 7.375C50.65 7.525 51.25 7.775 51.75 8.125C52.25 8.45833 52.6333 8.90833 52.9 9.475C53.1833 10.0417 53.325 10.7417 53.325 11.575C53.325 12.475 53.1167 13.225 52.7 13.825C52.3 14.425 51.7 14.9167 50.9 15.3C52 15.6167 52.8167 16.175 53.35 16.975C53.9 17.7583 54.175 18.7083 54.175 19.825C54.175 20.725 54 21.5083 53.65 22.175C53.3 22.825 52.825 23.3583 52.225 23.775C51.6417 24.1917 50.9667 24.5 50.2 24.7C49.45 24.9 48.675 25 47.875 25H39.225V7.15ZM43.15 21.95H47.35C47.7333 21.95 48.1 21.9167 48.45 21.85C48.8 21.7667 49.1083 21.6417 49.375 21.475C49.6417 21.2917 49.85 21.05 50 20.75C50.1667 20.45 50.25 20.0667 50.25 19.6C50.25 18.6833 49.9917 18.0333 49.475 17.65C48.9583 17.25 48.275 17.05 47.425 17.05H43.15V21.95ZM68.5775 25H65.2025V23.2H65.1275C64.6775 23.95 64.0942 24.4917 63.3775 24.825C62.6609 25.1583 61.9275 25.325 61.1775 25.325C60.2275 25.325 59.4442 25.2 58.8275 24.95C58.2275 24.7 57.7525 24.35 57.4025 23.9C57.0525 23.4333 56.8025 22.875 56.6525 22.225C56.5192 21.5583 56.4525 20.825 56.4525 20.025V12.075H60.0025V19.375C60.0025 20.4417 60.1692 21.2417 60.5025 21.775C60.8359 22.2917 61.4275 22.55 62.2775 22.55C63.2442 22.55 63.9442 22.2667 64.3775 21.7C64.8109 21.1167 65.0275 20.1667 65.0275 18.85V12.075H68.5775V25ZM74.9219 10.075H71.3719V7.15H74.9219V10.075ZM71.3719 12.075H74.9219V25H71.3719V12.075ZM77.8172 7.15H81.3672V25H77.8172V7.15ZM93.3375 18.5C93.3375 17.9667 93.2875 17.4583 93.1875 16.975C93.0875 16.475 92.9125 16.0417 92.6625 15.675C92.4292 15.2917 92.1208 14.9833 91.7375 14.75C91.3542 14.5167 90.8708 14.4 90.2875 14.4C89.7042 14.4 89.2125 14.5167 88.8125 14.75C88.4125 14.9833 88.0875 15.2917 87.8375 15.675C87.6042 16.0583 87.4292 16.5 87.3125 17C87.2125 17.4833 87.1625 17.9917 87.1625 18.525C87.1625 19.025 87.2208 19.525 87.3375 20.025C87.4542 20.525 87.6375 20.975 87.8875 21.375C88.1542 21.7583 88.4792 22.075 88.8625 22.325C89.2625 22.5583 89.7375 22.675 90.2875 22.675C90.8708 22.675 91.3542 22.5583 91.7375 22.325C92.1375 22.0917 92.4542 21.7833 92.6875 21.4C92.9208 21 93.0875 20.55 93.1875 20.05C93.2875 19.55 93.3375 19.0333 93.3375 18.5ZM93.3875 23.35H93.3375C92.9208 24.05 92.3708 24.5583 91.6875 24.875C91.0208 25.175 90.2625 25.325 89.4125 25.325C88.4458 25.325 87.5958 25.1417 86.8625 24.775C86.1292 24.3917 85.5208 23.8833 85.0375 23.25C84.5708 22.6 84.2125 21.8583 83.9625 21.025C83.7292 20.1917 83.6125 19.325 83.6125 18.425C83.6125 17.5583 83.7292 16.725 83.9625 15.925C84.2125 15.1083 84.5708 14.3917 85.0375 13.775C85.5208 13.1583 86.1208 12.6667 86.8375 12.3C87.5542 11.9167 88.3875 11.725 89.3375 11.725C90.1042 11.725 90.8292 11.8917 91.5125 12.225C92.2125 12.5417 92.7625 13.0167 93.1625 13.65H93.2125V7.15H96.7625V25H93.3875V23.35Z" fill="#1A1A18"/>
</g>
<defs>
<clipPath id="clip0_20_762">
<rect width="98" height="32" fill="white"/>
</clipPath>
</defs>
</svg>
