<svg width="284" height="109" viewBox="0 0 284 109" fill="none" xmlns="http://www.w3.org/2000/svg">
<path d="M88.114 50.175H102.265C104.757 50.175 106.804 49.5817 108.406 48.395C110.008 47.2083 110.809 45.28 110.809 42.61C110.809 41.1267 110.542 39.9103 110.008 38.961C109.474 38.0117 108.762 37.27 107.872 36.736C106.982 36.202 105.944 35.846 104.757 35.668C103.63 35.4307 102.443 35.312 101.197 35.312H88.114V50.175ZM74.141 24.454H104.045C107.071 24.454 109.83 24.721 112.322 25.255C114.814 25.789 116.95 26.679 118.73 27.925C120.51 29.1117 121.875 30.7137 122.824 32.731C123.833 34.7483 124.337 37.2403 124.337 40.207C124.337 43.411 123.595 46.081 122.112 48.217C120.688 50.353 118.552 52.1033 115.704 53.468C119.62 54.5953 122.527 56.583 124.426 59.431C126.384 62.2197 127.363 65.6017 127.363 69.577C127.363 72.781 126.74 75.5697 125.494 77.943C124.248 80.257 122.557 82.1557 120.421 83.639C118.344 85.1223 115.941 86.22 113.212 86.932C110.542 87.644 107.783 88 104.935 88H74.141V24.454ZM88.114 77.142H103.066C104.431 77.142 105.736 77.0233 106.982 76.786C108.228 76.4893 109.326 76.0443 110.275 75.451C111.224 74.7983 111.966 73.938 112.5 72.87C113.093 71.802 113.39 70.4373 113.39 68.776C113.39 65.5127 112.47 63.1987 110.631 61.834C108.792 60.41 106.359 59.698 103.333 59.698H88.114V77.142ZM178.636 88H166.621V81.592H166.354C164.752 84.262 162.675 86.1903 160.124 87.377C157.573 88.5637 154.962 89.157 152.292 89.157C148.91 89.157 146.121 88.712 143.926 87.822C141.79 86.932 140.099 85.686 138.853 84.084C137.607 82.4227 136.717 80.435 136.183 78.121C135.708 75.7477 135.471 73.137 135.471 70.289V41.987H148.109V67.975C148.109 71.7723 148.702 74.6203 149.889 76.519C151.076 78.3583 153.182 79.278 156.208 79.278C159.649 79.278 162.141 78.2693 163.684 76.252C165.227 74.1753 165.998 70.7933 165.998 66.106V41.987H178.636V88ZM201.222 34.867H188.584V24.454H201.222V34.867ZM188.584 41.987H201.222V88H188.584V41.987ZM211.529 24.454H224.167V88H211.529V24.454ZM266.782 64.86C266.782 62.9613 266.604 61.1517 266.248 59.431C265.892 57.651 265.269 56.1083 264.379 54.803C263.548 53.4383 262.45 52.3407 261.086 51.51C259.721 50.6793 258 50.264 255.924 50.264C253.847 50.264 252.097 50.6793 250.673 51.51C249.249 52.3407 248.092 53.4383 247.202 54.803C246.371 56.1677 245.748 57.74 245.333 59.52C244.977 61.2407 244.799 63.0503 244.799 64.949C244.799 66.729 245.006 68.509 245.422 70.289C245.837 72.069 246.49 73.671 247.38 75.095C248.329 76.4597 249.486 77.587 250.851 78.477C252.275 79.3077 253.966 79.723 255.924 79.723C258 79.723 259.721 79.3077 261.086 78.477C262.51 77.6463 263.637 76.5487 264.468 75.184C265.298 73.76 265.892 72.158 266.248 70.378C266.604 68.598 266.782 66.7587 266.782 64.86ZM266.96 82.126H266.782C265.298 84.618 263.34 86.4277 260.908 87.555C258.534 88.623 255.835 89.157 252.808 89.157C249.367 89.157 246.341 88.5043 243.731 87.199C241.12 85.8343 238.954 84.0247 237.234 81.77C235.572 79.456 234.297 76.8157 233.407 73.849C232.576 70.8823 232.161 67.797 232.161 64.593C232.161 61.5077 232.576 58.541 233.407 55.693C234.297 52.7857 235.572 50.2343 237.234 48.039C238.954 45.8437 241.09 44.0933 243.642 42.788C246.193 41.4233 249.16 40.741 252.542 40.741C255.271 40.741 257.852 41.3343 260.285 42.521C262.777 43.6483 264.735 45.3393 266.159 47.594H266.337V24.454H278.975V88H266.96V82.126Z" fill="#1A1A18"/>
<g clip-path="url(#clip0_112_509)">
<path d="M26.3206 87.9938H0L12.8975 63.8324L26.3206 87.9938ZM48.8078 58.4148L63.9938 87.9938H35.4707L17.3819 55.4322L17.438 55.3289L0 24H28.3464L48.8078 58.4148ZM51.5124 47.3145L37.6515 24H63.9938L51.5124 47.3145Z" fill="#FBBF24"/>
</g>
<defs>
<clipPath id="clip0_112_509">
<rect width="63.9938" height="63.9938" fill="white" transform="translate(0 24)"/>
</clipPath>
</defs>
</svg>
