<svg width="100" height="100" viewBox="0 0 100 100" fill="none" xmlns="http://www.w3.org/2000/svg">
<g clip-path="url(#clip0_28_912)">
<path d="M46.5181 99.943C27.9661 98.91 10.6111 86.585 3.67208 69.318C-0.424922 59.654 -0.952922 48.619 1.17708 38.413C4.81008 22.708 16.4151 9.16197 31.5171 3.40597C48.0221 -3.13503 67.9131 -0.208032 81.6221 11.166C98.6021 24.606 104.741 49.63 96.1191 69.456C88.5811 87.828 69.2541 100.633 49.3391 99.99C48.3991 100.001 47.4551 100.017 46.5171 99.942L46.5181 99.943ZM71.8551 72.862C76.5131 68.374 68.4651 65.44 65.0921 64.042C55.0961 59.682 43.9001 59.425 33.2221 60.593C29.2101 60.823 18.7601 62.343 24.3081 68.103C29.5061 68.63 34.6631 66.354 39.9331 66.529C50.0911 65.87 60.4671 68.015 69.2151 73.311C70.0781 73.791 71.1681 73.502 71.8551 72.862ZM77.7851 59.96C82.4311 55.422 75.3751 51.567 71.5231 50.247C56.4111 43.587 38.7771 42.381 22.9831 47.269C16.7811 50.873 24.2231 57.45 28.9591 53.841C43.9241 50.597 60.1951 52.621 73.5711 60.221C74.8691 60.815 76.5951 60.806 77.7851 59.96ZM83.3831 45.583C88.7451 42.907 85.4621 36.22 80.6301 35.249C64.4501 27.656 45.8591 26.289 28.3331 28.829C23.6221 29.183 14.4411 31.358 18.1541 37.901C22.3711 42.739 28.9201 37.371 34.2031 37.839C48.8081 36.381 64.2051 37.894 77.4651 44.549C79.2351 45.57 81.3471 46.653 83.3831 45.583Z" fill="#1DB954"/>
</g>
<defs>
<clipPath id="clip0_28_912">
<rect width="100" height="100" fill="white"/>
</clipPath>
</defs>
</svg>
